<svg width="192" height="25" viewBox="0 0 192 25" xmlns="http://www.w3.org/2000/svg"><title>Imported Layers</title><g fill="none" fill-rule="evenodd"><path d="M8.373 2.757c3.041 0 4.762 1.127 4.762 3.912 0 3.399-2.608 4.099-5.586 4.099h-.754V2.757h1.578zm4.34 9.3c2.777-.989 4.885-2.943 4.885-6.057 0-4.397-4.264-5.385-8.061-5.385H.711c-.369 0-.436.199-.436.519v.669c0 .53.202.562.889.756l1.453.4v18.465l-1.453.387c-.687.202-.889.234-.889.767v.655c0 .333.067.535.436.535H8.67c.367 0 .432-.202.432-.535v-.655c0-.533-.2-.565-.887-.767l-1.453-.387v-8.74h2.107c1.49 3.473 4.733 9.093 5.787 10.516.401.534.535.568 1.092.568h4.462c.367 0 .433-.202.433-.535v-.655c0-.633-.334-.6-.889-.767-.9-.233-1.127-.387-1.856-1.354-1.119-1.488-3.699-5.254-5.185-8.4zm13.028 7.377c0-1.622.953-1.956 1.81-2.155l3.543-.856v3.511c-1.256 1.124-2.476 1.578-3.445 1.578-.856 0-1.908-.356-1.908-2.078zm23.933.1c-1.056 1.122-2.279 1.954-3.699 1.954-2.644 0-3.773-2.787-3.773-5.92 0-3.744 1.617-6.024 4.039-6.024 2.543 0 3.433 2.513 3.433 5.989v4.001zm3.641-18.131c0-.494-.168-.788-.764-.788h-4.888c-.368 0-.434.199-.434.519v.436c0 .599.199.633.893.826l1.552.463v5.653c-.556-.52-1.812-1.254-3.699-1.254-3.576 0-7.641 2.611-7.641 8.998 0 5.59 3.108 7.977 6.153 7.977 1.953 0 3.601-1 5.187-2.623v1.357c0 .502.166.801.766.801h4.893c.361 0 .426-.202.426-.535v-.42c0-.602-.198-.635-.887-.835l-1.557-.466V1.403zm54.892 7.109c0-.487-.164-.788-.762-.788h-4.894c-.395 0-.426.201-.426.529v.427c0 .599.197.633.889.832l1.556.455v9.567c-1.324 1.423-2.347 1.954-3.705 1.954-2.549 0-2.746-1.954-2.746-5.297V8.512c0-.487-.162-.788-.758-.788h-4.896c-.395 0-.428.201-.428.529v.427c0 .599.197.633.893.832l1.554.455v8.113c0 5.12 2.377 6.153 4.797 6.153 2.178 0 3.766-.865 5.289-2.623v1.357c0 .502.164.801.76.801h4.891c.365 0 .431-.202.431-.535v-.42c0-.602-.199-.635-.892-.835l-1.553-.466v-13zM36.745 23.768c.367 0 .433-.202.433-.535v-.42c0-.602-.199-.635-.892-.835l-1.551-.466v-8.954c0-3.978-2.785-5.3-6.385-5.3-2.154 0-3.898.466-4.23.568-.901.265-1.063.488-1.157 1.355l-.201 1.785c-.031.324.069.457.295.457.295 0 .695-.226.928-.355 1.09-.633 2.742-1.101 4.133-1.101 2.842 0 2.976 1.889 2.976 3.179V14.8l-6.119 1.223c-2.012.4-3.111 1.389-3.111 3.744 0 2.579 1.32 4.466 4.107 4.466 1.811 0 3.133-.598 5.123-2.488v1.222c0 .502.166.801.76.801h4.891zm32.174-7.912c0 4.234-2.143 6.255-4.529 6.255-2.512 0-2.944-2.244-2.944-4.666v-5.489c1.065-1.121 2.287-1.957 3.709-1.957 2.643 0 3.764 2.782 3.764 5.857zm3.875-.722c0-5.425-3.108-7.876-6.152-7.876-1.92 0-3.575.965-5.196 2.611V1.403c0-.494-.164-.788-.754-.788h-4.898c-.363 0-.426.199-.426.519v.436c0 .599.193.633.891.826l1.552.463v18.852c0 .433.036.768.628 1.135 1.064.656 3.638 1.387 5.984 1.387 5.297 0 8.371-3.71 8.371-9.099zm50.456 4.4c-1.059 1.122-2.279 1.954-3.701 1.954-2.647 0-3.772-2.787-3.772-5.92 0-3.744 1.62-6.024 4.036-6.024 2.544 0 3.437 2.513 3.437 5.989v4.001zm3.641-18.131c0-.494-.168-.788-.766-.788h-4.891c-.396 0-.431.199-.431.519v.436c0 .599.199.633.892.826l1.555.463v5.653c-.56-.52-1.818-1.254-3.701-1.254-3.574 0-7.641 2.611-7.641 8.998 0 5.59 3.11 7.977 6.154 7.977 1.948 0 3.6-1 5.188-2.623v1.357c0 .502.166.801.764.801h4.89c.362 0 .43-.202.43-.535v-.42c0-.602-.199-.635-.891-.835l-1.552-.466V1.403zM83.175 21.945c-2.682 0-4.266-2.645-4.266-6.19 0-3.497 1.553-6.211 4.266-6.211 2.646 0 4.301 2.614 4.301 6.178 0 3.51-1.588 6.223-4.301 6.223zm-.397 2.288c5.619 0 8.429-4.299 8.429-8.898 0-4.267-2.442-8.077-7.702-8.077-5.623 0-8.434 4.298-8.434 8.899 0 4.266 2.448 8.076 7.707 8.076z" fill="#006991"/><path d="M191.613 8.347c0-.39-.132-.422-.465-.555-.826-.3-2.214-.534-3.667-.534-6.516 0-8.237 4.566-8.237 8.464 0 3.978 1.656 8.511 8.237 8.511 1.453 0 2.841-.233 3.667-.532.333-.135.465-.168.465-.566v-2.447c0-.231-.068-.332-.232-.332-.1 0-.262.067-.563.201-.527.232-1.619.732-3.14.732-3.043 0-4.893-1.855-4.893-5.567 0-3.732 1.883-5.521 4.893-5.521 1.521 0 2.613.501 3.14.734.301.133.463.201.563.201.164 0 .232-.101.232-.334V8.347zm-58.992-.623c-.396 0-.428.201-.428.529v.427c0 .599.198.633.893.832l1.553.455v7.445c0 5.622 2.513 6.821 5.156 6.821 2.117 0 3.474-.764 4.762-2.488h.099v1.623c0 .267.098.4.399.4h2.611c.301 0 .398-.133.398-.4V8.126c0-.267-.13-.402-.398-.402h-2.711c-.299 0-.398.135-.398.402v10.941c-1.022 1.421-2.244 2.089-3.733 2.089-2.547 0-2.679-1.856-2.679-4.766V8.126c0-.267-.131-.402-.397-.402h-5.127zm19.875 15.644c0 .267.1.4.397.4h2.71c.297 0 .397-.133.397-.4V12.424c1.025-1.423 2.25-2.089 3.734-2.089 2.549 0 2.68 1.856 2.68 4.766v8.267c0 .267.102.4.399.4h2.709c.298 0 .398-.133.398-.4V12.424c1.025-1.423 2.248-2.089 3.736-2.089 2.547 0 2.678 1.856 2.678 4.766v8.267c0 .267.1.4.398.4h2.711c.297 0 .397-.133.397-.4v-9.287c0-5.667-2.481-6.823-5.192-6.823-2.347 0-4.001.868-5.49 2.675-.926-2.107-2.611-2.675-4.398-2.675-2.082 0-3.438.767-4.76 2.481h-.1V8.126c0-.267-.13-.402-.396-.402h-2.611c-.297 0-.397.135-.397.402v15.242z" fill="#00AFDC"/></g></svg>